<?xml version="1.0" encoding="UTF-8" standalone="no"?>
<!DOCTYPE svg PUBLIC "-//W3C//DTD SVG 1.1//EN"
 "http://www.w3.org/Graphics/SVG/1.1/DTD/svg11.dtd">
<!-- Generated by graphviz version 2.47.3 (20210619.1520)
 -->
<!-- Title: dependencies Pages: 1 -->
<svg width="584pt" height="250pt"
 viewBox="0.00 0.00 584.00 249.80" xmlns="http://www.w3.org/2000/svg" xmlns:xlink="http://www.w3.org/1999/xlink">
<g id="graph0" class="graph" transform="scale(1 1) rotate(0) translate(4 245.8)">
<title>dependencies</title>
<polygon fill="white" stroke="transparent" points="-4,4 -4,-245.8 580,-245.8 580,4 -4,4"/>
<text text-anchor="middle" x="288" y="-8.2" font-family="sans-serif" font-size="14.00">dependencies</text>
<g id="clust1" class="cluster">
<title>cluster_AppModule</title>
<polygon fill="none" stroke="black" stroke-dasharray="1,5" points="8,-108.8 8,-233.8 498,-233.8 498,-108.8 8,-108.8"/>
</g>
<g id="clust3" class="cluster">
<title>cluster_AppModule_imports</title>
<polygon fill="none" stroke="black" points="154,-116.8 154,-168.8 490,-168.8 490,-116.8 154,-116.8"/>
</g>
<g id="clust6" class="cluster">
<title>cluster_AppModule_providers</title>
<polygon fill="none" stroke="black" points="16,-116.8 16,-168.8 146,-168.8 146,-116.8 16,-116.8"/>
</g>
<g id="clust7" class="cluster">
<title>cluster_ProductModule</title>
<polygon fill="none" stroke="black" stroke-dasharray="1,5" points="72,-32.8 72,-100.8 244,-100.8 244,-32.8 72,-32.8"/>
</g>
<g id="clust12" class="cluster">
<title>cluster_ProductModule_providers</title>
<polygon fill="none" stroke="black" points="80,-40.8 80,-92.8 236,-92.8 236,-40.8 80,-40.8"/>
</g>
<g id="clust13" class="cluster">
<title>cluster_SalesModule</title>
<polygon fill="none" stroke="black" stroke-dasharray="1,5" points="252,-32.8 252,-100.8 404,-100.8 404,-32.8 252,-32.8"/>
</g>
<g id="clust18" class="cluster">
<title>cluster_SalesModule_providers</title>
<polygon fill="none" stroke="black" points="260,-40.8 260,-92.8 396,-92.8 396,-40.8 260,-40.8"/>
</g>
<g id="clust19" class="cluster">
<title>cluster_UsersModule</title>
<polygon fill="none" stroke="black" stroke-dasharray="1,5" points="412,-32.8 412,-100.8 568,-100.8 568,-32.8 412,-32.8"/>
</g>
<g id="clust24" class="cluster">
<title>cluster_UsersModule_providers</title>
<polygon fill="none" stroke="black" points="420,-40.8 420,-92.8 560,-92.8 560,-40.8 420,-40.8"/>
</g>
<!-- ProductModule -->
<g id="node1" class="node">
<title>ProductModule</title>
<polygon fill="#8dd3c7" stroke="black" points="265.6,-160.8 262.6,-164.8 241.6,-164.8 238.6,-160.8 162.4,-160.8 162.4,-124.8 265.6,-124.8 265.6,-160.8"/>
<text text-anchor="middle" x="214" y="-138.6" font-family="Times,serif" font-size="14.00">ProductModule</text>
</g>
<!-- AppModule -->
<g id="node4" class="node">
<title>AppModule</title>
<polygon fill="#8dd3c7" stroke="black" points="312.66,-225.8 309.66,-229.8 288.66,-229.8 285.66,-225.8 229.34,-225.8 229.34,-189.8 312.66,-189.8 312.66,-225.8"/>
<text text-anchor="middle" x="271" y="-203.6" font-family="Times,serif" font-size="14.00">AppModule</text>
</g>
<!-- ProductModule&#45;&gt;AppModule -->
<g id="edge1" class="edge">
<title>ProductModule&#45;&gt;AppModule</title>
<path fill="none" stroke="black" d="M247.36,-160.91C247.36,-160.91 247.36,-179.79 247.36,-179.79"/>
<polygon fill="black" stroke="black" points="243.86,-179.79 247.36,-189.79 250.86,-179.79 243.86,-179.79"/>
</g>
<!-- SalesModule -->
<g id="node2" class="node">
<title>SalesModule</title>
<polygon fill="#8dd3c7" stroke="black" points="372.6,-160.8 369.6,-164.8 348.6,-164.8 345.6,-160.8 283.4,-160.8 283.4,-124.8 372.6,-124.8 372.6,-160.8"/>
<text text-anchor="middle" x="328" y="-138.6" font-family="Times,serif" font-size="14.00">SalesModule</text>
</g>
<!-- SalesModule&#45;&gt;AppModule -->
<g id="edge2" class="edge">
<title>SalesModule&#45;&gt;AppModule</title>
<path fill="none" stroke="black" d="M298.14,-160.91C298.14,-160.91 298.14,-179.79 298.14,-179.79"/>
<polygon fill="black" stroke="black" points="294.64,-179.79 298.14,-189.79 301.64,-179.79 294.64,-179.79"/>
</g>
<!-- UsersModule -->
<g id="node3" class="node">
<title>UsersModule</title>
<polygon fill="#8dd3c7" stroke="black" points="481.92,-160.8 478.92,-164.8 457.92,-164.8 454.92,-160.8 390.08,-160.8 390.08,-124.8 481.92,-124.8 481.92,-160.8"/>
<text text-anchor="middle" x="436" y="-138.6" font-family="Times,serif" font-size="14.00">UsersModule</text>
</g>
<!-- UsersModule&#45;&gt;AppModule -->
<g id="edge3" class="edge">
<title>UsersModule&#45;&gt;AppModule</title>
<path fill="none" stroke="black" d="M436,-160.91C436,-180.14 436,-207.8 436,-207.8 436,-207.8 323.06,-207.8 323.06,-207.8"/>
<polygon fill="black" stroke="black" points="323.06,-204.3 313.06,-207.8 323.06,-211.3 323.06,-204.3"/>
</g>
<!-- AppService -->
<g id="node5" class="node">
<title>AppService</title>
<ellipse fill="#fdb462" stroke="black" cx="81" cy="-142.8" rx="56.74" ry="18"/>
<text text-anchor="middle" x="81" y="-138.6" font-family="Times,serif" font-size="14.00">AppService</text>
</g>
<!-- AppService&#45;&gt;AppModule -->
<g id="edge4" class="edge">
<title>AppService&#45;&gt;AppModule</title>
<path fill="none" stroke="black" d="M81,-160.91C81,-180.14 81,-207.8 81,-207.8 81,-207.8 219.3,-207.8 219.3,-207.8"/>
<polygon fill="black" stroke="black" points="219.3,-211.3 229.3,-207.8 219.3,-204.3 219.3,-211.3"/>
</g>
<!-- ProductService -->
<g id="node6" class="node">
<title>ProductService</title>
<ellipse fill="#fdb462" stroke="black" cx="158" cy="-66.8" rx="70.06" ry="18"/>
<text text-anchor="middle" x="158" y="-62.6" font-family="Times,serif" font-size="14.00">ProductService</text>
</g>
<!-- ProductService&#45;&gt;ProductModule -->
<g id="edge5" class="edge">
<title>ProductService&#45;&gt;ProductModule</title>
<path fill="none" stroke="black" d="M195.24,-82.18C195.24,-82.18 195.24,-114.77 195.24,-114.77"/>
<polygon fill="black" stroke="black" points="191.74,-114.77 195.24,-124.77 198.74,-114.77 191.74,-114.77"/>
</g>
<!-- SalesService -->
<g id="node7" class="node">
<title>SalesService</title>
<ellipse fill="#fdb462" stroke="black" cx="328" cy="-66.8" rx="60.25" ry="18"/>
<text text-anchor="middle" x="328" y="-62.6" font-family="Times,serif" font-size="14.00">SalesService</text>
</g>
<!-- SalesService&#45;&gt;SalesModule -->
<g id="edge6" class="edge">
<title>SalesService&#45;&gt;SalesModule</title>
<path fill="none" stroke="black" d="M328,-84.81C328,-84.81 328,-114.65 328,-114.65"/>
<polygon fill="black" stroke="black" points="324.5,-114.65 328,-124.65 331.5,-114.65 324.5,-114.65"/>
</g>
<!-- UsersService -->
<g id="node8" class="node">
<title>UsersService</title>
<ellipse fill="#fdb462" stroke="black" cx="490" cy="-66.8" rx="61.95" ry="18"/>
<text text-anchor="middle" x="490" y="-62.6" font-family="Times,serif" font-size="14.00">UsersService</text>
</g>
<!-- UsersService&#45;&gt;UsersModule -->
<g id="edge7" class="edge">
<title>UsersService&#45;&gt;UsersModule</title>
<path fill="none" stroke="black" d="M454.87,-81.82C454.87,-81.82 454.87,-114.6 454.87,-114.6"/>
<polygon fill="black" stroke="black" points="451.37,-114.6 454.87,-124.6 458.37,-114.6 451.37,-114.6"/>
</g>
</g>
</svg>
